<svg xmlns="http://www.w3.org/2000/svg" width="96" height="96" viewBox="0 0 96 96" shape-rendering="crispEdges"><g opacity="0.16"><g transform="translate(14 16)"><rect x="2" y="0" width="1" height="1" fill="#c2408a"/><rect x="3" y="0" width="1" height="1" fill="#c2408a"/><rect x="5" y="0" width="1" height="1" fill="#c2408a"/><rect x="6" y="0" width="1" height="1" fill="#c2408a"/><rect x="1" y="1" width="1" height="1" fill="#c2408a"/><rect x="2" y="1" width="1" height="1" fill="#ff9ccb"/><rect x="3" y="1" width="1" height="1" fill="#ff9ccb"/><rect x="4" y="1" width="1" height="1" fill="#c2408a"/><rect x="5" y="1" width="1" height="1" fill="#ff9ccb"/><rect x="6" y="1" width="1" height="1" fill="#ff9ccb"/><rect x="7" y="1" width="1" height="1" fill="#c2408a"/><rect x="0" y="2" width="1" height="1" fill="#c2408a"/><rect x="1" y="2" width="1" height="1" fill="#ff9ccb"/><rect x="2" y="2" width="1" height="1" fill="#ffd6ea"/><rect x="3" y="2" width="1" height="1" fill="#ff9ccb"/><rect x="4" y="2" width="1" height="1" fill="#ff9ccb"/><rect x="5" y="2" width="1" height="1" fill="#ff9ccb"/><rect x="6" y="2" width="1" height="1" fill="#ffd6ea"/><rect x="7" y="2" width="1" height="1" fill="#ff9ccb"/><rect x="8" y="2" width="1" height="1" fill="#c2408a"/><rect x="0" y="3" width="1" height="1" fill="#c2408a"/><rect x="1" y="3" width="1" height="1" fill="#ff9ccb"/><rect x="2" y="3" width="1" height="1" fill="#ff9ccb"/><rect x="3" y="3" width="1" height="1" fill="#ff9ccb"/><rect x="4" y="3" width="1" height="1" fill="#ffd36e"/><rect x="5" y="3" width="1" height="1" fill="#ff9ccb"/><rect x="6" y="3" width="1" height="1" fill="#ff9ccb"/><rect x="7" y="3" width="1" height="1" fill="#ff9ccb"/><rect x="8" y="3" width="1" height="1" fill="#c2408a"/><rect x="1" y="4" width="1" height="1" fill="#c2408a"/><rect x="2" y="4" width="1" height="1" fill="#ff9ccb"/><rect x="3" y="4" width="1" height="1" fill="#ffd36e"/><rect x="4" y="4" width="1" height="1" fill="#f08a3c"/><rect x="5" y="4" width="1" height="1" fill="#ffd36e"/><rect x="6" y="4" width="1" height="1" fill="#ff9ccb"/><rect x="7" y="4" width="1" height="1" fill="#c2408a"/><rect x="0" y="5" width="1" height="1" fill="#c2408a"/><rect x="1" y="5" width="1" height="1" fill="#ff9ccb"/><rect x="2" y="5" width="1" height="1" fill="#ff9ccb"/><rect x="3" y="5" width="1" height="1" fill="#ff9ccb"/><rect x="4" y="5" width="1" height="1" fill="#ffd36e"/><rect x="5" y="5" width="1" height="1" fill="#ff9ccb"/><rect x="6" y="5" width="1" height="1" fill="#ff9ccb"/><rect x="7" y="5" width="1" height="1" fill="#ff9ccb"/><rect x="8" y="5" width="1" height="1" fill="#c2408a"/><rect x="0" y="6" width="1" height="1" fill="#c2408a"/><rect x="1" y="6" width="1" height="1" fill="#ff9ccb"/><rect x="2" y="6" width="1" height="1" fill="#ffd6ea"/><rect x="3" y="6" width="1" height="1" fill="#ff9ccb"/><rect x="4" y="6" width="1" height="1" fill="#ff9ccb"/><rect x="5" y="6" width="1" height="1" fill="#ff9ccb"/><rect x="6" y="6" width="1" height="1" fill="#ffd6ea"/><rect x="7" y="6" width="1" height="1" fill="#ff9ccb"/><rect x="8" y="6" width="1" height="1" fill="#c2408a"/><rect x="1" y="7" width="1" height="1" fill="#c2408a"/><rect x="2" y="7" width="1" height="1" fill="#ff9ccb"/><rect x="3" y="7" width="1" height="1" fill="#ff9ccb"/><rect x="4" y="7" width="1" height="1" fill="#c2408a"/><rect x="5" y="7" width="1" height="1" fill="#ff9ccb"/><rect x="6" y="7" width="1" height="1" fill="#ff9ccb"/><rect x="7" y="7" width="1" height="1" fill="#c2408a"/><rect x="2" y="8" width="1" height="1" fill="#c2408a"/><rect x="3" y="8" width="1" height="1" fill="#c2408a"/><rect x="5" y="8" width="1" height="1" fill="#c2408a"/><rect x="6" y="8" width="1" height="1" fill="#c2408a"/></g><g transform="translate(64 62)"><rect x="2" y="0" width="1" height="1" fill="#7a4bb0"/><rect x="3" y="0" width="1" height="1" fill="#7a4bb0"/><rect x="5" y="0" width="1" height="1" fill="#7a4bb0"/><rect x="6" y="0" width="1" height="1" fill="#7a4bb0"/><rect x="1" y="1" width="1" height="1" fill="#7a4bb0"/><rect x="2" y="1" width="1" height="1" fill="#c9a2f2"/><rect x="3" y="1" width="1" height="1" fill="#c9a2f2"/><rect x="4" y="1" width="1" height="1" fill="#7a4bb0"/><rect x="5" y="1" width="1" height="1" fill="#c9a2f2"/><rect x="6" y="1" width="1" height="1" fill="#c9a2f2"/><rect x="7" y="1" width="1" height="1" fill="#7a4bb0"/><rect x="0" y="2" width="1" height="1" fill="#7a4bb0"/><rect x="1" y="2" width="1" height="1" fill="#c9a2f2"/><rect x="2" y="2" width="1" height="1" fill="#efe2ff"/><rect x="3" y="2" width="1" height="1" fill="#c9a2f2"/><rect x="4" y="2" width="1" height="1" fill="#c9a2f2"/><rect x="5" y="2" width="1" height="1" fill="#c9a2f2"/><rect x="6" y="2" width="1" height="1" fill="#efe2ff"/><rect x="7" y="2" width="1" height="1" fill="#c9a2f2"/><rect x="8" y="2" width="1" height="1" fill="#7a4bb0"/><rect x="0" y="3" width="1" height="1" fill="#7a4bb0"/><rect x="1" y="3" width="1" height="1" fill="#c9a2f2"/><rect x="2" y="3" width="1" height="1" fill="#c9a2f2"/><rect x="3" y="3" width="1" height="1" fill="#c9a2f2"/><rect x="4" y="3" width="1" height="1" fill="#ffe08a"/><rect x="5" y="3" width="1" height="1" fill="#c9a2f2"/><rect x="6" y="3" width="1" height="1" fill="#c9a2f2"/><rect x="7" y="3" width="1" height="1" fill="#c9a2f2"/><rect x="8" y="3" width="1" height="1" fill="#7a4bb0"/><rect x="1" y="4" width="1" height="1" fill="#7a4bb0"/><rect x="2" y="4" width="1" height="1" fill="#c9a2f2"/><rect x="3" y="4" width="1" height="1" fill="#ffe08a"/><rect x="4" y="4" width="1" height="1" fill="#f0a24a"/><rect x="5" y="4" width="1" height="1" fill="#ffe08a"/><rect x="6" y="4" width="1" height="1" fill="#c9a2f2"/><rect x="7" y="4" width="1" height="1" fill="#7a4bb0"/><rect x="0" y="5" width="1" height="1" fill="#7a4bb0"/><rect x="1" y="5" width="1" height="1" fill="#c9a2f2"/><rect x="2" y="5" width="1" height="1" fill="#c9a2f2"/><rect x="3" y="5" width="1" height="1" fill="#c9a2f2"/><rect x="4" y="5" width="1" height="1" fill="#ffe08a"/><rect x="5" y="5" width="1" height="1" fill="#c9a2f2"/><rect x="6" y="5" width="1" height="1" fill="#c9a2f2"/><rect x="7" y="5" width="1" height="1" fill="#c9a2f2"/><rect x="8" y="5" width="1" height="1" fill="#7a4bb0"/><rect x="0" y="6" width="1" height="1" fill="#7a4bb0"/><rect x="1" y="6" width="1" height="1" fill="#c9a2f2"/><rect x="2" y="6" width="1" height="1" fill="#efe2ff"/><rect x="3" y="6" width="1" height="1" fill="#c9a2f2"/><rect x="4" y="6" width="1" height="1" fill="#c9a2f2"/><rect x="5" y="6" width="1" height="1" fill="#c9a2f2"/><rect x="6" y="6" width="1" height="1" fill="#efe2ff"/><rect x="7" y="6" width="1" height="1" fill="#c9a2f2"/><rect x="8" y="6" width="1" height="1" fill="#7a4bb0"/><rect x="1" y="7" width="1" height="1" fill="#7a4bb0"/><rect x="2" y="7" width="1" height="1" fill="#c9a2f2"/><rect x="3" y="7" width="1" height="1" fill="#c9a2f2"/><rect x="4" y="7" width="1" height="1" fill="#7a4bb0"/><rect x="5" y="7" width="1" height="1" fill="#c9a2f2"/><rect x="6" y="7" width="1" height="1" fill="#c9a2f2"/><rect x="7" y="7" width="1" height="1" fill="#7a4bb0"/><rect x="2" y="8" width="1" height="1" fill="#7a4bb0"/><rect x="3" y="8" width="1" height="1" fill="#7a4bb0"/><rect x="5" y="8" width="1" height="1" fill="#7a4bb0"/><rect x="6" y="8" width="1" height="1" fill="#7a4bb0"/></g><rect x="70" y="20" width="2" height="2" fill="#c9a2f2"/><rect x="24" y="74" width="2" height="2" fill="#ff9ccb"/></g></svg>